<?xml version="1.0" standalone="no"?>
<!DOCTYPE svg PUBLIC "-//W3C//DTD SVG 20010904//EN"
 "http://www.w3.org/TR/2001/REC-SVG-20010904/DTD/svg10.dtd">
<svg version="1.0" xmlns="http://www.w3.org/2000/svg"
 width="256.000000pt" height="256.000000pt" viewBox="0 0 256.000000 256.000000"
 preserveAspectRatio="xMidYMid meet">
<metadata>
Created by potrace 1.14, written by Peter Selinger 2001-2017
</metadata>
<g transform="translate(0.000000,256.000000) scale(0.100000,-0.100000)"
fill="#000000" stroke="none">
<path d="M744 2546 c-35 -15 -72 -58 -80 -93 -5 -18 -13 -23 -36 -23 -64 0
-107 -43 -108 -108 0 -33 6 -49 26 -69 l27 -27 -39 -29 c-75 -58 -219 -213
-270 -289 -28 -43 -71 -120 -95 -172 -40 -86 -47 -95 -74 -98 -24 -2 -31 -8
-33 -30 -2 -20 2 -28 18 -33 17 -6 20 -12 15 -32 -3 -14 -15 -33 -27 -42 -18
-15 -19 -20 -8 -40 7 -14 9 -39 6 -60 -14 -91 -2 -398 17 -417 2 -3 21 6 42
20 81 56 172 61 263 15 197 -98 197 -375 0 -473 -29 -14 -65 -26 -81 -26 l-28
0 22 -32 c54 -77 269 -278 298 -278 4 0 17 44 30 97 56 236 159 497 255 648
21 32 76 98 122 146 46 48 84 95 84 104 0 9 -34 51 -75 93 -169 169 -282 400
-375 767 l-38 150 670 3 c369 1 673 0 676 -2 6 -6 -24 -138 -59 -261 -83 -290
-202 -515 -348 -660 -44 -43 -71 -78 -71 -91 0 -13 30 -51 79 -100 89 -90 154
-185 216 -317 56 -118 125 -321 160 -469 l28 -117 46 32 c75 52 234 216 290
300 28 42 72 119 97 170 l45 92 -142 3 c-162 3 -195 15 -153 56 13 13 42 16
165 16 l149 0 10 26 c6 14 10 27 10 30 0 2 -74 4 -164 4 -171 0 -195 6 -180
44 5 14 29 16 179 16 155 0 174 2 180 18 4 9 10 86 13 171 l4 153 -22 -12
c-29 -16 -49 -6 -62 30 -7 23 -15 30 -27 25 -40 -16 -105 -22 -146 -14 -216
40 -298 294 -146 449 44 44 45 48 29 63 -10 10 -18 28 -18 41 0 24 25 38 120
68 10 3 -14 34 -80 100 -52 52 -111 106 -130 120 l-34 25 27 32 c55 65 19 153
-66 166 -38 6 -45 11 -63 48 -14 31 -32 48 -64 65 -44 22 -45 22 -545 22 -396
-1 -506 -4 -531 -14z m1574 -1428 c18 -18 14 -46 -7 -58 -32 -17 -157 -13
-175 6 -9 8 -16 19 -16 24 0 5 7 16 16 24 19 20 163 23 182 4z"/>
<path d="M2243 1654 c-15 -24 -15 -29 -2 -53 11 -20 22 -26 49 -26 27 0 38 6
49 26 13 24 13 29 -2 53 -12 18 -26 26 -47 26 -21 0 -35 -8 -47 -26z"/>
<path d="M237 829 c-16 -12 -27 -30 -27 -45 0 -28 32 -64 58 -64 31 0 62 29
62 59 0 57 -50 84 -93 50z"/>
<path d="M675 160 c326 -194 773 -208 1131 -36 63 30 114 57 114 60 0 3 -291
6 -647 6 l-648 0 50 -30z"/>
</g>
</svg>
